Coordinates
version=1
nRows=32
nColumns=22
inDegrees=yes

Units are S.I. units (second, meters, Newtons, ...)
If the header above contains a line with 'inDegrees', this indicates whether rotational values are in degrees (yes) or radians (no).

endheader
time	pelvis_tilt	pelvis_list	pelvis_rotation	pelvis_tx	pelvis_ty	pelvis_tz	hip_flexion_r	hip_adduction_r	hip_rotation_r	knee_angle_r	ankle_angle_r	subtalar_angle_r	hip_flexion_l	hip_adduction_l	hip_rotation_l	knee_angle_l	ankle_angle_l	subtalar_angle_l	lumbar_extension	lumbar_bending	lumbar_rotation
      4.36000000	     -1.90089832	      0.56714156	     -0.35415932	     -0.86500293	      0.92351628	      0.12512878	     -1.57336291	      2.99262105	     -2.96737802	    -13.96342067	     13.05990891	     -1.51606873	     22.09147105	     -5.02354882	    -12.23000339	    -20.09055807	      4.48153423	     -2.78457877	     -9.30282301	     -4.81179145	      3.65987189
      4.37000000	     -1.89575849	      0.68534040	     -0.24118897	     -0.86869419	      0.92451284	      0.12608355	     -1.42520463	      2.96528018	     -3.00704605	    -13.76598066	     12.74956231	     -1.66606899	     22.10252599	     -4.93658471	    -11.98992480	    -21.24698389	      4.82773609	     -2.97131932	     -9.20717610	     -5.01526023	      3.63693751
      4.38000000	     -1.87098370	      0.82011120	     -0.16805360	     -0.87225916	      0.92545133	      0.12703897	     -1.29430049	      2.91192269	     -3.03866778	    -13.59476494	     12.46415453	     -1.80474264	     22.05516232	     -4.83120086	    -11.71473885	    -22.42342940	      5.23177825	     -3.09378515	     -9.13044533	     -5.24155976	      3.66907919
      4.39000000	     -1.85577556	      0.93788863	     -0.11140523	     -0.87574134	      0.92627830	      0.12799180	     -1.16449018	      2.87660647	     -3.02468288	    -13.41576206	     12.21615053	     -1.97882912	     22.00799913	     -4.73854444	    -11.38573500	    -23.64680239	      5.63255530	     -3.23137610	     -9.04604151	     -5.45116426	      3.70492987
      4.40000000	     -1.82199718	      1.04777975	     -0.09450396	     -0.87910533	      0.92704153	      0.12894712	     -1.05817394	      2.84259219	     -2.98196499	    -13.24536174	     11.99231266	     -2.14837151	     21.91107187	     -4.65394232	    -11.03636093	    -24.88870679	      6.03451124	     -3.33828120	     -8.98060355	     -5.65321877	      3.77121924
      4.41000000	     -1.76919122	      1.12675642	     -0.11224621	     -0.88236793	      0.92774343	      0.12988569	     -0.97835569	      2.83368810	     -2.91597137	    -13.07495675	     11.77323737	     -2.31263006	     21.76815395	     -4.59765419	    -10.66548877	    -26.14273525	      6.44230261	     -3.42597941	     -8.93787182	     -5.81459108	      3.86685074
      4.42000000	     -1.69991424	      1.17363170	     -0.16565507	     -0.88550594	      0.92838895	      0.13080624	     -0.92727857	      2.85088389	     -2.83114098	    -12.89710637	     11.55187939	     -2.45970190	     21.57425914	     -4.57179977	    -10.29690069	    -27.39103782	      6.85505054	     -3.49489567	     -8.91039456	     -5.93315503	      3.98574796
      4.43000000	     -1.62002915	      1.17682362	     -0.24994903	     -0.88851860	      0.92897691	      0.13172632	     -0.90396512	      2.90895059	     -2.72986494	    -12.70175732	     11.31644795	     -2.59786236	     21.33730729	     -4.59165132	     -9.94434999	    -28.62562005	      7.26251115	     -3.56067408	     -8.88974415	     -6.00111727	      4.12356926
      4.44000000	     -1.53235833	      1.14222590	     -0.36988997	     -0.89139721	      0.92950956	      0.13261273	     -0.90656314	      2.99661792	     -2.61701358	    -12.48700452	     11.07220986	     -2.70109262	     21.04834771	     -4.64918306	     -9.62898312	    -29.81926279	      7.70687848	     -3.61252662	     -8.87059894	     -6.01445312	      4.28586893
      4.45000000	     -1.44661893	      1.07253812	     -0.51992358	     -0.89413472	      0.92998427	      0.13349991	     -0.92741851	      3.11561065	     -2.49710306	    -12.25067937	     10.81901758	     -2.77172721	     20.71653344	     -4.74572080	     -9.36316936	    -30.96068379	      8.17478557	     -3.65724207	     -8.83848103	     -5.98653379	      4.46440247
      4.46000000	     -1.37118960	      0.96672044	     -0.69496250	     -0.89672976	      0.93039538	      0.13438061	     -0.96326732	      3.26665667	     -2.37453116	    -11.98282047	     10.55619295	     -2.81410743	     20.34854718	     -4.88370040	     -9.15705010	    -32.03673280	      8.68452582	     -3.70159672	     -8.78199395	     -5.91613128	      4.65936876
      4.47000000	     -1.31033347	      0.83032154	     -0.88954867	     -0.89917948	      0.93074802	      0.13525226	     -1.00752363	      3.44507106	     -2.24402334	    -11.68989670	     10.28519194	     -2.82822231	     19.94702686	     -5.05588785	     -9.01076612	    -33.03431648	      9.23083199	     -3.75112821	     -8.69651626	     -5.81167833	      4.86486248
      4.48000000	     -1.26804699	      0.67130354	     -1.09858872	     -0.90148291	      0.93104724	      0.13610726	     -1.05714513	      3.64359752	     -2.10511118	    -11.36978925	     10.00851444	     -2.81167069	     19.51434211	     -5.25323775	     -8.92924476	    -33.93989118	      9.80317782	     -3.81188909	     -8.57560600	     -5.67965149	      5.07493243
      4.49000000	     -1.24807359	      0.50728418	     -1.31461222	     -0.90363945	      0.93129284	      0.13690021	     -1.09704750	      3.83911288	     -1.96604488	    -11.04530327	      9.74006920	     -2.76501819	     19.05113519	     -5.45149275	     -8.91189597	    -34.73706126	     10.41972697	     -3.87133202	     -8.41530383	     -5.53471429	      5.27457074
      4.50000000	     -1.24457515	      0.32043678	     -1.53531797	     -0.90563551	      0.93151001	      0.13766171	     -1.15416208	      4.05638562	     -1.80745290	    -10.67551000	      9.46097347	     -2.67056946	     18.55655583	     -5.67780657	     -8.97909823	    -35.42513745	     11.00529441	     -3.95680940	     -8.22010019	     -5.36146752	      5.47762189
      4.51000000	     -1.26514436	      0.15844385	     -1.74989774	     -0.90752513	      0.93167267	      0.13835474	     -1.16673030	      4.24106186	     -1.65997829	    -10.36239931	      9.21329129	     -2.56892583	     18.03463912	     -5.86459268	     -9.08687107	    -35.97815828	     11.66144478	     -4.00492956	     -7.99230563	     -5.21322528	      5.63904447
      4.52000000	     -1.29622602	     -0.01480677	     -1.96632571	     -0.90922623	      0.93183115	      0.13898601	     -1.20644159	      4.43352315	     -1.49170751	     -9.99871878	      8.95553375	     -2.40708976	     17.46887797	     -6.07097506	     -9.31297214	    -36.39292098	     12.24380633	     -4.06879953	     -7.73280799	     -5.04246215	      5.78305495
      4.53000000	     -1.34543845	     -0.16391042	     -2.16511678	     -0.91081532	      0.93195285	      0.13953971	     -1.21748366	      4.59679946	     -1.34262810	     -9.67084816	      8.73608082	     -2.25345007	     16.87627482	     -6.23476956	     -9.56811560	    -36.65755620	     12.83404237	     -4.09881793	     -7.44760657	     -4.89819594	      5.90223938
      4.54000000	     -1.39958063	     -0.29509345	     -2.35142050	     -0.91226121	      0.93207275	      0.14000187	     -1.23085770	      4.73685833	     -1.18953597	     -9.34722447	      8.52237420	     -2.08017387	     16.23750638	     -6.36935402	     -9.89337746	    -36.75632049	     13.37617335	     -4.11503427	     -7.14839815	     -4.76492448	      5.97646402
      4.55000000	     -1.45702121	     -0.40162541	     -2.51674023	     -0.91357677	      0.93218927	      0.14035975	     -1.24337786	      4.84667307	     -1.04879029	     -9.03550878	      8.32432416	     -1.89779531	     15.55502077	     -6.45658016	    -10.25248377	    -36.67742101	     13.86482322	     -4.11096021	     -6.84098168	     -4.65165626	      6.00431860
      4.56000000	     -1.52500551	     -0.48782365	     -2.65248122	     -0.91476633	      0.93228474	      0.14059717	     -1.25140936	      4.93072182	     -0.93097549	     -8.72654939	      8.14715110	     -1.72024520	     14.84445655	     -6.49697179	    -10.62578089	    -36.41775354	     14.28662218	     -4.08041348	     -6.51800702	     -4.55316712	      5.98482775
      4.57000000	     -1.60151182	     -0.55541745	     -2.75576241	     -0.91585348	      0.93236122	      0.14069798	     -1.25354109	      4.99043937	     -0.83572872	     -8.42482217	      7.98313209	     -1.54014974	     14.10749436	     -6.48520175	    -10.99169579	    -35.96365667	     14.62546077	     -4.01183368	     -6.18658517	     -4.46462000	      5.91018659
      4.58000000	     -1.69651779	     -0.61001429	     -2.82371826	     -0.91684052	      0.93239354	      0.14066521	     -1.24230500	      5.03215753	     -0.76875363	     -8.12444118	      7.83059398	     -1.36165373	     13.36061365	     -6.42646960	    -11.33070498	    -35.31451329	     14.87457108	     -3.88349540	     -5.83789131	     -4.37906237	      5.78119683
      4.59000000	     -1.81404486	     -0.66234881	     -2.85197712	     -0.91775230	      0.93237184	      0.14048649	     -1.21274081	      5.06685905	     -0.73261922	     -7.82395416	      7.68779127	     -1.18179399	     12.61288718	     -6.33077059	    -11.62981921	    -34.46353587	     15.02053912	     -3.66730474	     -5.47136521	     -4.28352377	      5.59431996
      4.60000000	     -1.96581167	     -0.72350353	     -2.84497684	     -0.91860985	      0.93227058	      0.14018031	     -1.15365694	      5.10848971	     -0.72208847	     -7.51879295	      7.55354113	     -1.00836553	     11.88061439	     -6.20841250	    -11.86451353	    -33.41387280	     15.05390832	     -3.36212278	     -5.07720641	     -4.16656178	      5.36592156
      4.61000000	     -2.14500379	     -0.80429161	     -2.80727086	     -0.91942457	      0.93209086	      0.13976749	     -1.07003116	      5.16763596	     -0.74078923	     -7.21271618	      7.42370581	     -0.82806975	     11.15760828	     -6.07496632	    -12.02933551	    -32.17137101	     14.97713311	     -2.96697597	     -4.66375027	     -4.01848575	      5.08982760
      4.62000000	     -2.35263680	     -0.91379815	     -2.74396722	     -0.92023544	      0.93182312	      0.13926202	     -0.95834417	      5.25532856	     -0.78542326	     -6.90499717	      7.30062855	     -0.63784623	     10.45014617	     -5.93954210	    -12.10464097	    -30.74873469	     14.77939294	     -2.52372446	     -4.23727926	     -3.82995707	      4.78509664
      4.63000000	     -2.58544880	     -1.06068801	     -2.65787064	     -0.92106266	      0.93146426	      0.13867828	     -0.81717400	      5.38150186	     -0.85050898	     -6.60401311	      7.18462418	     -0.43909292	      9.76198896	     -5.81561687	    -12.07811583	    -29.17058500	     14.46620174	     -2.10589836	     -3.80451911	     -3.59453980	      4.45932982
      4.64000000	     -2.82913789	     -1.24520966	     -2.55240781	     -0.92191931	      0.93102654	      0.13802514	     -0.65806041	      5.54630402	     -0.92822760	     -6.31462343	      7.08117146	     -0.22883855	      9.08690775	     -5.71281671	    -11.96168502	    -27.47249105	     14.05259079	     -1.77161944	     -3.38290294	     -3.31184677	      4.11286719
      4.65000000	     -3.12148523	     -1.46092928	     -2.44014375	     -0.92283960	      0.93046066	      0.13733022	     -0.43557661	      5.74591205	     -0.95576827	     -6.04095218	      6.94698261	     -0.10006358	      8.48435573	     -5.63868089	    -11.78171737	    -25.71192042	     13.59419872	     -1.66363378	     -2.92881148	     -2.99081562	      3.74399125
      4.66000000	     -3.26894859	     -1.69688092	     -2.30637428	     -0.92368579	      0.93003832	      0.13656364	     -0.36398290	      5.95617405	     -1.07713248	     -5.78791625	      6.92230805	      0.20432587	      7.72031994	     -5.57964888	    -11.56852445	    -23.87423349	     13.07796961	     -1.48796197	     -2.65965811	     -2.65497543	      3.38638954
      4.67000000	     -3.42136324	     -1.93438374	     -2.18462856	     -0.92453464	      0.92957420	      0.13578688	     -0.28129286	      6.16805759	     -1.12988735	     -5.54313474	      6.86158783	      0.40799299	      6.99995891	     -5.54254008	    -11.39642547	    -22.06815339	     12.61857462	     -1.50825403	     -2.39486290	     -2.32019959	      3.04624237
